# xmcd
#
# Track frame offsets:
#	150
#	14607
#	27207
#	47258
#	63132
#	77279
#	88931
#	101832
#	113882
#	134376
#	146517
#	158444
#	170734
#	183915
#	197845
#	211503
#	226699
#	239862
#	259894
#	274770
#
# Disc length: 3836 seconds
#
# Revision: 1
# Processed by: cddbd v1.5.2PL0 Copyright (c) Steve Scherf et al.
# Submitted via: audiograbber 1.83.01
#
DISCID=0a0efa14
DTITLE=Various Artist - Melodien für Millionen - La Montanara - CD1
DYEAR=2011
DGENRE=Pop
TTITLE0=MONTANARA-CHOR - La Montanara (Das Lied der Berge)
TTITLE1=PETER ALEXANDER - Teure Heimat (Nabucco)
TTITLE2=VICO TORRIANI - La Pastorella
TTITLE3=FRANZL LANG - Der Königsjodler
TTITLE4=GABY ALBRECHT - Lacrima Mariae
TTITLE5=ORIGINAL NAABTAL DUO - Patrona Bavariae
TTITLE6=GITTI and ERICA - Heidi
TTITLE7=PETER ALEXANDER - Aus Böhmen kommt die Musik
TTITLE8=RUNDFUNK BLASORCHESTER LEIPZIG - Alte Kameraden
TTITLE9=WALTER SCHEEL - Hoch auf dem gelben Wagen (Aber der Wagen, der rollt)
TTITLE10=REINER SÜß - Auf, auf zum fröhlichen Jagen
TTITLE11=GÜNTER KALLMANN CHOR - Serenade an Elisabeth (Elisabeth Serenade)
TTITLE12=DAS HELLBERG-DUO - Hohe Tannen
TTITLE13=HERBERT ROTH MIT SEINER INSTRUMENTALGRUPPE - Rennsteiglied
TTITLE14=HERBERT ERNST GROH - Vor meinem Vaterhaus steht eine Linde
TTITLE15=HEMMANN-QUINTETT - Heimweh (Dort wo die Blumen blüh'n)
TTITLE16=TRIO SAN JOSE - Ave Maria No Morro
TTITLE17=WILL HÖHNE - Nimm uns mit, Kapitän, auf die Reise
TTITLE18=HANS ALBERS - La Paloma [Studio Version]
TTITLE19=LOLITA - Seemann, lass das Träumen
EXTD=
EXTT0=
EXTT1=
EXTT2=
EXTT3=
EXTT4=
EXTT5=
EXTT6=
EXTT7=
EXTT8=
EXTT9=
EXTT10=
EXTT11=
EXTT12=
EXTT13=
EXTT14=
EXTT15=
EXTT16=
EXTT17=
EXTT18=
EXTT19=
PLAYORDER=
